TITLE ""
FILE "1Q_t_0979-0988.mp3" MP3
  TRACK 01 AUDIO
    TITLE "1Q_t_0979-0988_01"
    INDEX 01 00:00:00
  TRACK 02 AUDIO
    TITLE "1Q_t_0979-0988_02"
    INDEX 01 00:00:08
  TRACK 03 AUDIO
    TITLE "1Q_t_0979-0988_03"
    INDEX 01 00:01:29
  TRACK 04 AUDIO
    TITLE "1Q_t_0979-0988_04"
    INDEX 01 00:01:74
  TRACK 05 AUDIO
    TITLE "1Q_t_0979-0988_05"
    INDEX 01 00:03:32
  TRACK 06 AUDIO
    TITLE "1Q_t_0979-0988_06"
    INDEX 01 00:03:42
  TRACK 07 AUDIO
    TITLE "1Q_t_0979-0988_07"
    INDEX 01 00:06:11
  TRACK 08 AUDIO
    TITLE "1Q_t_0979-0988_08"
    INDEX 01 00:06:19
  TRACK 09 AUDIO
    TITLE "1Q_t_0979-0988_09"
    INDEX 01 00:10:75
  TRACK 10 AUDIO
    TITLE "1Q_t_0979-0988_10"
    INDEX 01 00:11:47
  TRACK 11 AUDIO
    TITLE "1Q_t_0979-0988_11"
    INDEX 01 00:12:53
  TRACK 12 AUDIO
    TITLE "1Q_t_0979-0988_12"
    INDEX 01 00:12:62
  TRACK 13 AUDIO
    TITLE "1Q_t_0979-0988_13"
    INDEX 01 00:15:53
  TRACK 14 AUDIO
    TITLE "1Q_t_0979-0988_14"
    INDEX 01 00:15:61
  TRACK 15 AUDIO
    TITLE "1Q_t_0979-0988_15"
    INDEX 01 00:21:54
  TRACK 16 AUDIO
    TITLE "1Q_t_0979-0988_16"
    INDEX 01 00:22:26
  TRACK 17 AUDIO
    TITLE "1Q_t_0979-0988_17"
    INDEX 01 00:23:45
  TRACK 18 AUDIO
    TITLE "1Q_t_0979-0988_18"
    INDEX 01 00:23:52
  TRACK 19 AUDIO
    TITLE "1Q_t_0979-0988_19"
    INDEX 01 00:26:10
  TRACK 20 AUDIO
    TITLE "1Q_t_0979-0988_20"
    INDEX 01 00:26:16
  TRACK 21 AUDIO
    TITLE "1Q_t_0979-0988_21"
    INDEX 01 00:31:42
  TRACK 22 AUDIO
    TITLE "1Q_t_0979-0988_22"
    INDEX 01 00:32:12
  TRACK 23 AUDIO
    TITLE "1Q_t_0979-0988_23"
    INDEX 01 00:33:12
  TRACK 24 AUDIO
    TITLE "1Q_t_0979-0988_24"
    INDEX 01 00:33:22
  TRACK 25 AUDIO
    TITLE "1Q_t_0979-0988_25"
    INDEX 01 00:35:24
  TRACK 26 AUDIO
    TITLE "1Q_t_0979-0988_26"
    INDEX 01 00:35:32
  TRACK 27 AUDIO
    TITLE "1Q_t_0979-0988_27"
    INDEX 01 00:40:41
  TRACK 28 AUDIO
    TITLE "1Q_t_0979-0988_28"
    INDEX 01 00:41:13
  TRACK 29 AUDIO
    TITLE "1Q_t_0979-0988_29"
    INDEX 01 00:42:32
  TRACK 30 AUDIO
    TITLE "1Q_t_0979-0988_30"
    INDEX 01 00:42:42
  TRACK 31 AUDIO
    TITLE "1Q_t_0979-0988_31"
    INDEX 01 00:45:62
  TRACK 32 AUDIO
    TITLE "1Q_t_0979-0988_32"
    INDEX 01 00:45:70
  TRACK 33 AUDIO
    TITLE "1Q_t_0979-0988_33"
    INDEX 01 00:51:02
  TRACK 34 AUDIO
    TITLE "1Q_t_0979-0988_34"
    INDEX 01 00:51:49
  TRACK 35 AUDIO
    TITLE "1Q_t_0979-0988_35"
    INDEX 01 00:52:66
  TRACK 36 AUDIO
    TITLE "1Q_t_0979-0988_36"
    INDEX 01 00:53:03
  TRACK 37 AUDIO
    TITLE "1Q_t_0979-0988_37"
    INDEX 01 00:56:07
  TRACK 38 AUDIO
    TITLE "1Q_t_0979-0988_38"
    INDEX 01 00:56:13
  TRACK 39 AUDIO
    TITLE "1Q_t_0979-0988_39"
    INDEX 01 01:01:04
  TRACK 40 AUDIO
    TITLE "1Q_t_0979-0988_40"
    INDEX 01 01:01:49
  TRACK 41 AUDIO
    TITLE "1Q_t_0979-0988_41"
    INDEX 01 01:02:54
  TRACK 42 AUDIO
    TITLE "1Q_t_0979-0988_42"
    INDEX 01 01:02:64
  TRACK 43 AUDIO
    TITLE "1Q_t_0979-0988_43"
    INDEX 01 01:05:31
  TRACK 44 AUDIO
    TITLE "1Q_t_0979-0988_44"
    INDEX 01 01:05:37
  TRACK 45 AUDIO
    TITLE "1Q_t_0979-0988_45"
    INDEX 01 01:09:31
  TRACK 46 AUDIO
    TITLE "1Q_t_0979-0988_46"
    INDEX 01 01:10:01
  TRACK 47 AUDIO
    TITLE "1Q_t_0979-0988_47"
    INDEX 01 01:11:36
  TRACK 48 AUDIO
    TITLE "1Q_t_0979-0988_48"
    INDEX 01 01:11:46
  TRACK 49 AUDIO
    TITLE "1Q_t_0979-0988_49"
    INDEX 01 01:13:05
  TRACK 50 AUDIO
    TITLE "1Q_t_0979-0988_50"
    INDEX 01 01:13:13
  TRACK 51 AUDIO
    TITLE "1Q_t_0979-0988_51"
    INDEX 01 01:18:08
  TRACK 52 AUDIO
    TITLE "1Q_t_0979-0988_52"
    INDEX 01 01:18:55
  TRACK 53 AUDIO
    TITLE "1Q_t_0979-0988_53"
    INDEX 01 01:19:67
  TRACK 54 AUDIO
    TITLE "1Q_t_0979-0988_54"
    INDEX 01 01:20:01
  TRACK 55 AUDIO
    TITLE "1Q_t_0979-0988_55"
    INDEX 01 01:21:22
  TRACK 56 AUDIO
    TITLE "1Q_t_0979-0988_56"
    INDEX 01 01:21:28
  TRACK 57 AUDIO
    TITLE "1Q_t_0979-0988_57"
    INDEX 01 01:25:34
  TRACK 58 AUDIO
    TITLE "1Q_t_0979-0988_58"
    INDEX 01 01:26:06
  TRACK 59 AUDIO
    TITLE "1Q_t_0979-0988_59"
    INDEX 01 01:27:27
  TRACK 60 AUDIO
    TITLE "1Q_t_0979-0988_60"
    INDEX 01 01:27:33
  TRACK 61 AUDIO
    TITLE "1Q_t_0979-0988_61"
    INDEX 01 01:29:63
  TRACK 62 AUDIO
    TITLE "1Q_t_0979-0988_62"
    INDEX 01 01:29:71
  TRACK 63 AUDIO
    TITLE "1Q_t_0979-0988_63"
    INDEX 01 01:34:11
